<?xml version="1.0" encoding="UTF-8"?>
<svg id="Layer_1" data-name="Layer 1" xmlns="http://www.w3.org/2000/svg" viewBox="0 0 1060.28 342.52">
  <defs>
    <style>
      .cls-1 {
        fill: #fff;
        stroke-width: 0px;
      }
    </style>
  </defs>
  <g id="g12">
    <path id="path14" class="cls-1" d="M0,.06v8.4c24.29,0,28.18,0,28.18,15.69v188.98c0,15.69-3.83,15.69-28.18,15.69v8.4h119.31c44.38,0,73.18-31.6,73.18-63.19s-28.48-57.98-65.55-60.45c33.24-6.57,56.49-28.79,56.49-55.17C183.43,29.57,155.02,0,110.25,0L0,.06ZM50.68,111.04V22.17c0-11.85.66-13.61,14.48-13.61h44.16c34.11,0,49.3,27.86,49.3,49.47,0,26.5-21.06,53-58.31,53h-49.64ZM65.16,228.97c-13.76,0-14.42-1.76-14.42-13.61v-98.68h63.8c35.49,0,52.77,31.82,52.77,57.38s-19.65,54.91-57.22,54.91"/>
    <path id="path16" class="cls-1" d="M258.53,84.22c0-14.93,1.76-16.68,26.93-16.68v-8.4c-11.8.34-29.9,1.05-38.95,1.05s-27.14-.66-38.94-1.05v8.4c24.03,0,25.73,1.76,25.73,16.68v128.03c0,14.91-1.64,16.67-25.73,16.67v8.4c11.8-.34,29.9-.98,38.94-.98s27.1.65,38.95.98v-8.4c-25.18,0-26.93-1.7-26.93-16.67"/>
    <path id="path18" class="cls-1" d="M305.43,59.04v8.38c22.97,0,24.67,2.09,24.67,16.35v128.75c0,14.27-1.7,16.35-24.67,16.35v8.4h104.98c38.56,0,62.93-23.59,62.93-47.83,0-22.55-22.27-41.64-52.51-45.43,24.69-5.15,44.49-20.78,44.49-40.92,0-21.82-24.29-44.04-62.2-44.04h-97.7ZM352.6,140.48v-58.08c0-13.83,1.76-14.87,14.04-14.87h33.73c31.99,0,37.26,26.99,37.26,35.28,0,12.44-9.11,37.68-45.7,37.68h-39.33ZM352.6,147.51h52.23c29.56,0,39,26.78,39,41.58,0,15.85-11.46,39.83-43.17,39.83h-34.12c-12.18,0-13.87-1.04-13.87-15.14"/>
    <path id="path20" class="cls-1" d="M682.88.66h-200.81l-5.87,76.91h6.25c4.49-57.6,9.44-67.69,63.36-67.69h19.2c6.64,1.04,6.64,5.27,6.64,13.27v189.3c0,12.57-1.05,16.4-30.35,16.4h-9.87v8.4c16.68-.32,34.07-.66,51.13-.66s34.45.34,51.12.66v-8.4h-9.7c-28.86,0-29.9-3.83-29.9-16.4V23.16c0-7.68,0-11.85,6.26-13.27h19.08c53.21,0,58.42,10.03,62.91,67.69h6.26"/>
    <path id="path22" class="cls-1" d="M856.01,254.64h-6.26c-7.63,51.57-12.12,79.6-73.29,79.6h-48.27c-13.87,0-14.53-1.76-14.53-13.71v-97.2h32.8c32.8,0,35.92,12.01,35.92,41.36h5.6v-90.45h-5.6c0,28.84-3.12,40.64-35.92,40.64h-32.8v-86.18c0-11.73.66-13.48,14.53-13.48h47.56c53.81,0,60.06,21.39,64.95,67.35h6.25l-8.34-76.9h-176.08v9.55c24.63,0,28.58,0,28.58,15.63v187.65c0,15.63-3.89,15.63-28.58,15.63v8.4h180.97"/>
    <path id="path24" class="cls-1" d="M951.12,105.66l51.45-74.39c5.15-7.3,15.63-22.33,44.16-22.71V.17c-7.96.66-21.18.66-29.52.66-11.46,0-25.73,0-34.39-.66v8.4c11.14,1.04,13.87,8,13.87,13.61,0,4.16-1.7,6.97-4.17,10.42l-45.91,66.59-51.45-75.31c-2.42-3.79-2.75-4.89-2.75-5.93,0-3.13,3.79-9.06,15.31-9.38V.17c-11.14.66-28.14.66-39.6.66-9,0-26.39,0-34.78-.66v8.4c19.1,0,25.35.72,33.03,11.52l67.08,98.52-60.5,88.37c-14.93,21.61-37.52,21.99-44.16,21.99v8.4c7.95-.66,21.18-.66,29.52-.66,9.38,0,25.73,0,34.39.66v-8.4c-10.76-1.04-13.87-8-13.87-13.61,0-4.49,1.7-6.97,3.45-9.44l55.62-81.18,60.5,88.92c2.74,3.85,2.74,4.89,2.74,5.93,0,2.74-3.12,8.72-15.29,9.44v8.4c11.14-.66,28.14-.66,39.6-.66,9,0,26.39,0,34.83.66v-8.4c-22.27,0-25.78-1.7-32.69-11.52"/>
  </g>
</svg>